<?xml version="1.0" encoding="UTF-8"?>
<svg id="Layer_1" xmlns="http://www.w3.org/2000/svg" version="1.1" viewBox="0 0 480 480">
  <!-- Generator: Adobe Illustrator 30.0.0, SVG Export Plug-In . SVG Version: 2.1.1 Build 123)  -->
  <path d="M408.26,69.6c-22.01-22.16-48.2-39.72-77.06-51.67C302.34,5.98,271.39-.11,240.15,0c-41.76.04-82.78,11.05-118.94,31.91-36.17,20.87-66.21,50.86-87.13,86.99C13.17,155.02,2.12,196.01,2.03,237.74c-.08,41.74,10.81,82.76,31.59,118.96L0,480l126.08-33c34.81,19.36,73.93,29.67,113.77,30,63.33,0,124.1-25,169.07-69.55,44.98-44.55,70.52-105.06,71.08-168.35-.21-31.58-6.66-62.81-18.97-91.9-12.31-29.09-30.25-55.46-52.78-77.6ZM240.15,435.9c-35.49.02-70.33-9.51-100.86-27.6l-7.2-4.5-74.75,19.8,19.81-72.9-4.8-7.5c-25.54-41.2-35.07-90.33-26.79-138.08,8.28-47.75,33.8-90.81,71.72-121.02,37.92-30.21,85.61-45.47,134.04-42.89,48.43,2.58,94.23,22.82,128.72,56.89,37.7,36.85,59.29,87.1,60.04,139.8-.47,52.68-21.75,103.03-59.19,140.12-37.44,37.08-88.02,57.88-140.73,57.88ZM348.52,287.7c-6-3-35.12-17.4-40.53-19.2-5.4-1.8-9.61-3-13.51,3-5.87,8.04-12.19,15.75-18.91,23.1-3.3,4.2-6.9,4.5-12.91,0-34.23-13.52-62.75-38.42-80.75-70.5-6.3-10.5,6-9.9,17.41-32.4.84-1.62,1.28-3.42,1.28-5.25s-.44-3.63-1.28-5.25c0-3-13.51-32.4-18.31-44.1-4.8-11.7-9.61-9.9-13.51-10.2h-11.71c-3.03.05-6.02.74-8.77,2.03s-5.18,3.16-7.14,5.47c-6.74,6.55-11.99,14.46-15.41,23.2-3.42,8.75-4.92,18.12-4.41,27.5,1.88,22.44,10.34,43.83,24.32,61.5,25.58,38.27,60.64,69.28,101.76,90,21.57,12.58,46.63,17.84,71.44,15,8.26-1.64,16.09-4.99,22.96-9.85,6.88-4.86,12.66-11.11,16.96-18.34,3.99-8.83,5.24-18.65,3.6-28.2-2.7-3-6.6-4.5-12.61-7.5Z"/>
</svg>