<svg xmlns="http://www.w3.org/2000/svg" xml:space="preserve" width="800" height="800" style="fill-rule:evenodd;clip-rule:evenodd;stroke-linejoin:round;stroke-miterlimit:2" viewBox="0 0 64 64"><path id="Icons" d="M-576-64H704v800H-576Z" style="fill:none"/><g id="Icons1"><g id="info"><path d="M32.168 56.028c6.18-.06 12.297-2.62 16.697-6.967 5.224-5.163 7.915-12.803 6.977-20.096-1.609-12.499-11.883-20.98-23.828-20.98-9.075 0-17.896 5.677-21.764 13.909-2.962 6.303-2.968 13.911 0 20.225 3.841 8.174 12.517 13.821 21.61 13.909Zm-.283-4.004c-9.23-.089-17.841-7.227-19.553-16.378-1.207-6.452 1.071-13.433 5.818-18.015 5.543-5.35 14.253-7.142 21.496-4.11 6.481 2.714 11.331 9.014 12.225 15.955.766 5.949-1.369 12.185-5.565 16.48-3.68 3.767-8.841 6.017-14.163 6.068Z" style="fill-rule:nonzero"/><path d="M33.986 44.028h-3.907V26.635h3.907Zm-4.148-21.91q0-.901.571-1.495.57-.595 1.632-.595 1.06 0 1.639.595.579.594.579 1.495 0 .884-.579 1.47-.579.588-1.639.587-1.062 0-1.632-.587-.571-.587-.571-1.47" style="fill-rule:nonzero"/></g></g></svg>