<svg xmlns="http://www.w3.org/2000/svg" id="Layer_1" viewBox="0 0 480 480"><path d="M408.26 69.6a235.7 235.7 0 0 0-77.06-51.67A235.8 235.8 0 0 0 240.15 0c-41.76.04-82.78 11.05-118.94 31.91a238.26 238.26 0 0 0-87.13 86.99A238.25 238.25 0 0 0 2.03 237.74 238 238 0 0 0 33.62 356.7L0 480l126.08-33a238.1 238.1 0 0 0 113.77 30c63.33 0 124.1-25 169.07-69.55A239.93 239.93 0 0 0 480 239.1c-.21-31.58-6.66-62.81-18.97-91.9a239.9 239.9 0 0 0-52.78-77.6ZM240.15 435.9c-35.49.02-70.33-9.51-100.86-27.6l-7.2-4.5-74.75 19.8 19.81-72.9-4.8-7.5a197.9 197.9 0 0 1-26.79-138.08A198 198 0 0 1 117.28 84.1a198.2 198.2 0 0 1 134.04-42.89A198.16 198.16 0 0 1 380.04 98.1c37.7 36.85 59.29 87.1 60.04 139.8-.47 52.68-21.75 103.03-59.19 140.12a200 200 0 0 1-140.73 57.88Zm108.37-148.2c-6-3-35.12-17.4-40.53-19.2-5.4-1.8-9.61-3-13.51 3a272 272 0 0 1-18.91 23.1c-3.3 4.2-6.9 4.5-12.91 0a159.98 159.98 0 0 1-80.75-70.5c-6.3-10.5 6-9.9 17.41-32.4a11.4 11.4 0 0 0 0-10.5c0-3-13.51-32.4-18.31-44.1s-9.61-9.9-13.51-10.2h-11.71c-3.03.05-6.02.74-8.77 2.03s-5.18 3.16-7.14 5.47a65.8 65.8 0 0 0-15.41 23.2 65.7 65.7 0 0 0-4.41 27.5 114.53 114.53 0 0 0 24.32 61.5 266.8 266.8 0 0 0 101.76 90 115.7 115.7 0 0 0 71.44 15 60.03 60.03 0 0 0 39.92-28.19 48.53 48.53 0 0 0 3.6-28.2c-2.7-3-6.6-4.5-12.61-7.5Z"/></svg>